# xmcd
#
# Track frame offsets: 
#        150
#        14193
#        30828
#        42769
#        60238
#        72547
#        88478
#        103218
#        119518
#        134797
#        150900
#        165381
#        181696
#        194391
#        209852
#
# Disc length: 2982 seconds
#
# Revision: 0
# Processed by: cddbd v1.4PL0 Copyright (c) Steve Scherf et al.
# Submitted via: ExactAudioCopy v0.90a11
#
DISCID=d70ba40f
DTITLE=Various Artist - The Aussie Country Party Album
DYEAR=1900
DGENRE=
TTITLE0=Lee Kernaghan Skinny Dippin
TTITLE1=Beccy Cole Keep On Rockin
TTITLE2=Josh Arnold Headin for the country
TTITLE3=James Blundell A Very Good Song
TTITLE4=Tania Kernaghan Nine Mile Run
TTITLE5=The Wolverines Gonna Ride all Night Long
TTITLE6=Tina Martyn Not That Kinda Girl
TTITLE7=Grant Richardson Getting Back to the Country
TTITLE8=Tamara Stewart Its a Good Thing Youre Crazy 
TTITLE9=Mitchell Shadlow Cool Cow Cafe
TTITLE10=Gina Jeffreys Girls Night Out
TTITLE11=Darren Coggan Rosie
TTITLE12=Red Rivers Road Train
TTITLE13=Sara Storer Whats so Good
TTITLE14=Jim Haynes Since Cheryl went Feral
EXTD=
EXTT0=
EXTT1=
EXTT2=
EXTT3=
EXTT4=
EXTT5=
EXTT6=
EXTT7=
EXTT8=
EXTT9=
EXTT10=
EXTT11=
EXTT12=
EXTT13=
EXTT14=
PLAYORDER=
